# xmcd
#
# Track frame offsets:
#	150
#	13940
#	28692
#	43775
#	57812
#	70510
#	84785
#	101735
#	118960
#	132960
#	146710
#	159770
#	173992
#	190125
#	207790
#	217775
#	233382
#	246565
#
# Disc length: 3524 seconds
#
# Revision: 2
# Processed by: cddbd v1.4PL0 Copyright (c) Steve Scherf et al.
# Submitted via: audiograbber 1.81.02
#
DISCID=f20dc212
DTITLE=Various Artist - Kickin' Country 2
DYEAR=1994
DGENRE=Country
TTITLE0=Collin Raye - That's My Story
TTITLE1=Patty Loveless - You Will
TTITLE2=Mary Chapin Carpenter - Passionate Kisses
TTITLE3=McBride and the Ride - Love On The Loose
TTITLE4=Toby Keith - A Little Less Talk and a Lot More Action
TTITLE5=Gibson Miller Band - Texas Tattoo
TTITLE6=Tanya Tucker (duet w Delbert McClinton)  - Tell Me about It
TTITLE7=Joe Diffie - Honky Tonk Attitude
TTITLE8=Sammy Kershaw - Don't Go Near the Water
TTITLE9=Don Neilson - Country in the City
TTITLE10=Suzy Boggus - Outbound Plane
TTITLE11=Lee Roy Parnel - Tender Moments
TTITLE12=Dolly Parton - Romeo
TTITLE13=Michelle Wright - Rhythm of Romance
TTITLE14=Ricky Van Shelton - Wear My Ring Around Your Neck
TTITLE15=Prescott Brown - There You Go
TTITLE16=Cassandra Vasik - Roll Like A Wheel
TTITLE17=Matt Minglewood - Some Day I'm Gonna Ride In A Cadillac
EXTD=
EXTT0=Collin Raye
EXTT1=
EXTT2=
EXTT3=
EXTT4=
EXTT5=
EXTT6=
EXTT7=
EXTT8=
EXTT9=
EXTT10=
EXTT11=
EXTT12=
EXTT13=
EXTT14=
EXTT15=
EXTT16=
EXTT17=
PLAYORDER=
